<svg version="1.1" id="Layer_1" xmlns="http://www.w3.org/2000/svg" xmlns:xlink="http://www.w3.org/1999/xlink" x="0px" y="0px"
	  width="8000px" height="8000px" viewBox="0 0 2500 2500" enable-background="new 0 0 2500 2500" xml:space="preserve">
<path fill="#194CBC" opacity="1.000000" stroke="none" 
	d="
M178.876953,1558.865967 
	C161.004120,1540.996948 143.612747,1523.606689 125.755013,1505.750244 
	C182.818100,1448.642700 239.223190,1392.193726 297.260376,1334.111328 
	C215.214218,1334.111328 135.467087,1334.111328 55.020008,1334.111328 
	C55.020008,1306.326782 55.020008,1279.493530 55.020008,1251.607910 
	C136.365753,1251.607910 217.870819,1251.607910 298.933258,1251.607910 
	C299.491302,1250.268677 299.636261,1249.983887 299.728119,1249.682861 
	C299.822296,1249.374146 300.026276,1248.947266 299.901306,1248.749878 
	C299.369995,1247.910278 298.820892,1247.050659 298.124573,1246.351562 
	C244.505493,1192.510376 190.871460,1138.684204 137.252640,1084.842773 
	C137.048157,1084.637451 137.046127,1084.230591 137.237030,1084.848389 
	C155.384506,1066.749390 173.213272,1048.968140 191.854431,1030.376587 
	C246.513748,1085.093018 302.118713,1140.755981 357.723694,1196.418945 
	C358.371307,1196.122559 359.018951,1195.826294 359.666565,1195.529907 
	C359.666565,1117.468018 359.666565,1039.406128 359.666565,960.748169 
	C384.189819,960.748169 407.658844,960.748169 432.248871,960.748169 
	C432.248871,1057.771606 432.248871,1154.547852 432.248871,1252.361816 
	C535.162720,1252.361816 636.966919,1252.361816 739.309937,1252.361816 
	C739.309937,1279.865479 739.309937,1306.323853 739.309937,1333.852051 
	C658.410706,1333.852051 578.018127,1333.852051 495.060944,1333.852051 
	C551.172852,1390.020874 605.469055,1444.372192 658.969849,1497.927124 
	C640.998840,1516.147095 623.306702,1534.084473 604.702087,1552.946899 
	C550.193848,1498.439575 494.932159,1443.178833 439.825165,1388.072876 
	C439.026062,1388.372437 438.695709,1388.456543 438.407318,1388.616333 
	C438.148804,1388.759644 437.869385,1388.945435 437.721649,1389.187378 
	C437.554352,1389.461182 437.444519,1389.818237 437.444458,1390.139160 
	C437.432983,1467.775635 437.433319,1545.412109 437.433319,1622.832764 
	C429.865051,1625.109863 371.135101,1625.543457 359.735229,1623.461304 
	C359.735229,1546.127075 359.735229,1468.639648 359.735229,1391.152344 
	C359.140533,1390.825928 358.545837,1390.499634 357.951141,1390.173218 
	C300.365967,1447.757690 242.780807,1505.342041 184.716614,1563.405518 
	C182.815704,1561.964844 181.087051,1560.654785 178.876953,1558.865967 
z"/>
<path fill="#194CBC" opacity="1.000000" stroke="none" 
	d="
M2322.391602,1270.093994 
	C2339.112549,1266.603027 2355.047607,1266.690552 2370.828125,1270.218140 
	C2397.304199,1276.136841 2416.103516,1291.917603 2427.746094,1316.234741 
	C2437.551514,1336.714355 2441.728516,1358.624023 2442.004639,1381.113525 
	C2442.565186,1426.758545 2442.481201,1472.411377 2442.657227,1518.061035 
	C2442.676514,1523.027222 2442.659912,1527.993530 2442.659912,1533.645020 
	C2422.581299,1533.645020 2403.120850,1533.645020 2382.304443,1533.645020 
	C2382.304443,1530.177734 2382.304443,1526.638672 2382.304443,1523.099609 
	C2382.303223,1482.111938 2382.457275,1441.123413 2382.192139,1400.137451 
	C2382.125488,1389.856934 2381.596436,1379.421997 2379.734619,1369.343506 
	C2375.952637,1348.871704 2366.484619,1332.044678 2344.779541,1326.099609 
	C2321.307861,1319.670898 2301.278809,1326.360474 2285.331543,1344.499512 
	C2272.295898,1359.327026 2265.985596,1377.053589 2265.687744,1396.691650 
	C2265.328857,1420.345825 2265.505127,1444.008545 2265.476562,1467.667480 
	C2265.453857,1486.328491 2265.471680,1504.989624 2265.471680,1523.650635 
	C2265.471680,1526.899536 2265.471680,1530.148438 2265.471680,1533.814697 
	C2244.885254,1533.814697 2225.403076,1533.814697 2204.964355,1533.814697 
	C2204.964355,1529.697876 2204.964355,1526.095581 2204.964355,1522.493164 
	C2204.963623,1482.505249 2205.173096,1442.515381 2204.831055,1402.530396 
	C2204.731689,1390.926758 2203.068115,1379.335327 2202.074219,1367.742310 
	C2201.961426,1366.425903 2201.582520,1365.126099 2201.260254,1363.835205 
	C2189.657715,1317.348389 2141.075195,1315.409180 2116.067383,1336.645630 
	C2096.730957,1353.066284 2088.502197,1374.773804 2088.231689,1399.460938 
	C2087.782715,1440.443726 2088.081787,1481.434692 2088.065918,1522.422241 
	C2088.064453,1526.013428 2088.065674,1529.604736 2088.065674,1533.755005 
	C2067.755615,1533.755005 2048.317627,1533.755005 2028.383789,1533.755005 
	C2028.383789,1447.834717 2028.383789,1362.363403 2028.383789,1276.278076 
	C2046.851562,1276.278076 2065.023926,1276.278076 2083.974854,1276.278076 
	C2086.416504,1287.433838 2084.564209,1299.089478 2086.233643,1312.440430 
	C2107.811523,1280.108521 2137.517822,1266.148682 2174.705322,1267.781860 
	C2213.323486,1269.478027 2239.631592,1288.803223 2254.644287,1325.433838 
	C2270.809570,1298.189087 2291.179932,1277.997314 2322.391602,1270.093994 
z"/>
<path fill="#194BBB" opacity="1.000000" stroke="none" 
	d="
M1554.208984,1374.000000 
	C1554.208984,1427.609131 1554.208984,1480.218262 1554.208984,1533.580078 
	C1534.942261,1533.580078 1516.184814,1533.580078 1496.400391,1533.580078 
	C1496.400391,1520.794922 1496.400391,1508.028076 1496.400391,1495.261230 
	C1495.825928,1495.057007 1495.251465,1494.852661 1494.676880,1494.648438 
	C1493.928467,1495.493774 1493.069946,1496.265503 1492.447388,1497.195190 
	C1467.622681,1534.262207 1424.110107,1550.099243 1378.132324,1539.015747 
	C1333.637085,1528.289673 1304.661743,1499.467163 1290.200806,1456.896484 
	C1274.770386,1411.471191 1277.791260,1366.902344 1303.023560,1325.185425 
	C1329.176636,1281.946167 1379.581909,1259.818115 1428.282593,1269.843384 
	C1452.713013,1274.872681 1472.514648,1287.676392 1487.878052,1307.325562 
	C1489.448120,1309.333618 1490.964600,1311.383545 1493.718506,1315.011475 
	C1493.718506,1269.052368 1493.718506,1225.045776 1493.718506,1180.435059 
	C1513.920898,1180.435059 1533.393799,1180.435059 1554.208984,1180.435059 
	C1554.208984,1244.671753 1554.208984,1308.835938 1554.208984,1374.000000 
M1493.936646,1403.168579 
	C1493.255249,1397.554199 1492.915894,1391.873169 1491.836792,1386.336304 
	C1485.080444,1351.670898 1455.701172,1325.655273 1421.749634,1324.071899 
	C1385.882446,1322.399170 1355.335327,1344.129639 1344.985840,1378.912964 
	C1340.122803,1395.256714 1340.193359,1411.857056 1344.275757,1428.295288 
	C1356.635620,1478.065674 1412.310669,1501.839233 1455.686035,1475.456909 
	C1481.751709,1459.602783 1493.394531,1435.114502 1493.936646,1403.168579 
z"/>
<path fill="#1A4CBC" opacity="1.000000" stroke="none" 
	d="
M1790.135986,1340.000000 
	C1790.144287,1364.991333 1789.887329,1388.987061 1790.298340,1412.971558 
	C1790.451416,1421.901123 1791.340454,1430.992065 1793.319946,1439.684692 
	C1800.078003,1469.361328 1817.744385,1484.461060 1848.072021,1485.493408 
	C1883.190918,1486.688843 1903.073730,1469.724243 1909.685791,1438.106445 
	C1911.710693,1428.423950 1912.100098,1418.272949 1912.165283,1408.329346 
	C1912.430054,1368.012329 1912.277100,1327.692505 1912.278076,1287.373779 
	C1912.278198,1283.802002 1912.278198,1280.230225 1912.278198,1276.166748 
	C1932.855957,1276.166748 1952.392578,1276.166748 1972.651855,1276.166748 
	C1972.889160,1278.793335 1973.317627,1281.339233 1973.319580,1283.885376 
	C1973.353638,1327.203003 1973.461304,1370.521362 1973.265381,1413.838135 
	C1973.186890,1431.196411 1971.428833,1448.403564 1966.266968,1465.125366 
	C1953.988647,1504.900024 1927.731934,1529.472778 1886.972168,1538.459961 
	C1861.116699,1544.160889 1835.205444,1543.976562 1809.774536,1537.129761 
	C1768.592651,1526.042236 1744.009521,1498.354858 1734.450073,1457.285156 
	C1731.900146,1446.330322 1730.242554,1434.915161 1730.123291,1423.690674 
	C1729.617310,1376.046509 1729.841064,1328.394653 1729.820068,1280.745605 
	C1729.819580,1279.464966 1730.066284,1278.184326 1730.259521,1276.300293 
	C1749.968262,1276.300293 1769.428223,1276.300293 1790.135986,1276.300293 
	C1790.135986,1297.259277 1790.135986,1318.129639 1790.135986,1340.000000 
z"/>
<path fill="#1B4DBC" opacity="1.000000" stroke="none" 
	d="
M1051.860474,1521.792236 
	C1051.860474,1526.065430 1051.860474,1529.366333 1051.860474,1532.517822 
	C1044.556885,1534.732910 1008.946777,1535.374268 992.074402,1533.733032 
	C990.155151,1526.657104 989.782166,1286.889893 991.762695,1276.134399 
	C1010.526489,1276.134399 1029.380493,1276.134399 1049.387939,1276.134399 
	C1049.387939,1289.854004 1049.387939,1303.247681 1049.387939,1316.641357 
	C1050.008667,1316.795654 1050.629517,1316.949951 1051.250244,1317.104126 
	C1052.891479,1314.401855 1054.451538,1311.646362 1056.186768,1309.005859 
	C1069.958374,1288.050781 1089.278687,1276.670776 1114.435913,1275.809082 
	C1124.682495,1275.458008 1134.951172,1275.750977 1145.776611,1275.750977 
	C1145.776611,1293.246338 1145.776611,1310.024048 1145.776611,1327.869995 
	C1138.823242,1327.869995 1132.240723,1328.054077 1125.671143,1327.839844 
	C1086.666992,1326.567993 1061.440430,1350.502319 1054.247070,1388.048218 
	C1052.629028,1396.493164 1052.040161,1405.243164 1051.979980,1413.859741 
	C1051.730835,1449.511719 1051.866211,1485.166504 1051.860474,1521.792236 
z"/>
<path fill="#1B4DBC" opacity="1.000000" stroke="none" 
	d="
M1178.562744,1363.999756 
	C1178.562988,1334.387451 1178.562988,1305.775146 1178.562988,1275.774536 
	C1199.037964,1275.546631 1218.812134,1275.659302 1239.231445,1275.708252 
	C1239.231445,1361.878052 1239.231445,1447.360474 1239.231445,1533.595947 
	C1219.460938,1533.595947 1199.665405,1533.595947 1178.562622,1533.595947 
	C1178.562622,1477.433838 1178.562622,1421.216919 1178.562744,1363.999756 
z"/>
<path fill="#1B4DBC" opacity="1.000000" stroke="none" 
	d="
M1614.157593,1434.000000 
	C1614.157593,1381.051758 1614.157593,1329.103394 1614.157593,1276.405273 
	C1634.570801,1276.405273 1654.365601,1276.405273 1674.822754,1276.405273 
	C1674.822754,1361.845703 1674.822754,1447.336914 1674.822754,1534.231934 
	C1655.003174,1534.458740 1635.225220,1534.323242 1614.157593,1534.312866 
	C1614.157593,1500.750977 1614.157593,1467.875488 1614.157593,1434.000000 
z"/>
<path fill="#184ABB" opacity="1.000000" stroke="none" 
	d="
M898.007324,1534.327637 
	C888.400513,1534.327637 879.789734,1534.327637 870.526306,1534.327637 
	C870.526306,1448.029785 870.526306,1362.381348 870.526306,1276.201904 
	C890.280640,1276.201904 909.757385,1276.201904 929.927124,1276.201904 
	C929.927124,1362.002075 929.927124,1447.631226 929.927124,1534.327515 
	C919.460693,1534.327515 909.231995,1534.327515 898.007324,1534.327637 
z"/>
<path fill="#1B4DBC" opacity="1.000000" stroke="none" 
	d="
M869.866089,1177.987793 
	C883.558533,1163.722168 899.693665,1162.737183 916.409363,1168.235596 
	C931.763000,1173.285889 939.687744,1187.753540 938.033081,1204.654907 
	C936.602051,1219.271118 925.827820,1231.090942 910.727661,1233.753418 
	C905.241394,1234.720825 899.433777,1234.937378 893.894409,1234.349731 
	C867.357178,1231.534302 853.968994,1205.028809 867.150818,1181.846436 
	C867.804993,1180.696045 868.656677,1179.657837 869.866089,1177.987793 
z"/>
<path fill="#1A4DBC" opacity="1.000000" stroke="none" 
	d="
M1621.581299,1228.673706 
	C1609.404419,1219.701660 1605.104370,1208.075073 1607.221802,1194.151733 
	C1609.257202,1180.768555 1617.180420,1171.865479 1629.917847,1167.619141 
	C1639.955811,1164.272461 1650.270752,1164.345825 1660.247192,1167.901489 
	C1675.709717,1173.412476 1683.950928,1187.093018 1682.469482,1203.948242 
	C1681.080933,1219.747314 1670.093506,1231.418823 1653.946899,1234.023560 
	C1642.860229,1235.812012 1632.071167,1235.258179 1621.581299,1228.673706 
z"/>
<path fill="#1A4CBC" opacity="1.000000" stroke="none" 
	d="
M1174.390625,1215.183594 
	C1165.406616,1190.570068 1177.965942,1172.228760 1195.523682,1167.187012 
	C1204.626099,1164.573242 1213.943237,1164.543945 1223.036743,1167.324219 
	C1239.831543,1172.458984 1248.285400,1186.491089 1247.192871,1203.099976 
	C1246.085815,1219.927979 1234.327515,1231.805542 1217.341675,1234.148193 
	C1199.506714,1236.607666 1184.243896,1232.858032 1174.390625,1215.183594 
z"/>
</svg>