<?xml version="1.0" encoding="utf-8"?>
<!-- Generator: Adobe Illustrator 26.1.0, SVG Export Plug-In . SVG Version: 6.00 Build 0)  -->
<svg version="1.1" id="Layer_1" xmlns="http://www.w3.org/2000/svg" xmlns:xlink="http://www.w3.org/1999/xlink" x="0px" y="0px" viewBox="450 200 320 320" style="enable-background:new 0 0 1366 768;" xml:space="preserve">

<style type="text/css">
	.st0{fill:#F05A34;}
	.st1{fill:#F46C36;}
	.st2{fill:#F78334;}
	.st3{fill:#F99E28;}
	.st4{fill:#F99732;}
	.st5{fill:#FFAE02;}
	.st6{fill:none;}
</style>
<g>
	<path class="st0" d="M769,295.775c-0.718,0.891-1.839,0.962-10,1c-3.862,0.018-8.587,0.025-14,0c-9.431-18.561-30.447-28.072-50-23
		c-18.226,4.728-31.534,21.18-32.5,40.5c-0.461-3.731-2.37-22.327,10.5-38.5c13.215-16.607,32.296-18.449,38-19
		c2.682-0.259,25.218-2.092,43,13C764.261,278.484,772.01,292.04,769,295.775z"/>
	<path class="st0" d="M631,296.775c1.473-6.613,5.931-22.214,20-35c11.023-10.018,22.617-13.465,28-15c15.18-4.329,27.711-2.7,32-2
		c21.029,3.43,33.011,15.339,34,14c1.134-1.534-12.461-20.073-35-27c-3.903-1.2-36.678-10.657-61,12
		C626.905,264.357,630.595,293.922,631,296.775z"/>
	<path class="st0" d="M600,296.775c1.505-0.395-1.643-9.212,0-22c0.465-3.621,2.203-15.997,11-28c11.227-15.318,26.911-20.422,32-22
		c17.548-5.44,30.746-1.304,31-3c0.321-2.141-20.164-12.441-42-7c-17.644,4.396-31.971,18.023-38,34c-0.901,2.387-4.451,12.337-3,25
		C592.437,286.32,598.29,297.224,600,296.775z"/>
	<path class="st0" d="M569,308.775c2.144-0.649-8.695-21.975-2-49c1.475-5.956,6.223-25.121,22-35c5.842-3.658,12.198-5.418,12-6
		c-0.255-0.752-11.461,0.459-21,6c-21.042,12.224-23.795,39.607-24,42C554,290.123,566.919,309.405,569,308.775z"/>
	<path class="st0" d="M551,248.775c1.013,1.115-11.558,8.693-17,25c-5.827,17.462,0.253,33.751,2,38c1.694,4.12,5.118,12.197,13,19
		c8.638,7.456,17.326,8.804,17,10c-0.39,1.433-13.467,1.757-25-5c-13.58-7.955-18.531-21.925-20-27c-5.342-18.456,2.249-33.697,4-37
		C533.661,255.445,549.889,247.552,551,248.775z"/>
	<path class="st1" d="M508,314.775c0.848,0.153-0.282,5.118,1,12c1.453,7.801,5.105,13.239,7,16c1.445,2.105,10.331,14.648,27,19
		c3.824,0.998,9.791,2.487,17,1c7.92-1.634,12.351-5.833,13-5c0.811,1.04-4.879,9.168-14,13c-8.454,3.552-16.357,1.944-21,1
		c-4.496-0.915-16.834-3.619-26-15c-2.129-2.643-9.21-12.117-9-25C503.149,322.669,506.896,314.576,508,314.775z"/>
	<path class="st1" d="M509,367.775c0.707-0.112,1.295,3.248,4,8c0,0,2.246,3.946,6,8c7.364,7.953,30.601,14.971,52,7
		c8.354-3.112,12.975-7.222,14-6c1.389,1.657-5.234,11.439-15,17c-8.586,4.889-16.932,4.996-22,5c-6.275,0.005-16.483,0.014-26-7
		c-1.604-1.183-10.217-7.744-13-19C507.434,374.441,508.037,367.928,509,367.775z"/>
	<path class="st2" d="M542,420.775c0.422-0.951,5.974,2.326,16,3c12.514,0.841,22.217-3.031,27-5c6.473-2.664,11.608-4.778,16-10
		c5.869-6.977,5.934-14.181,7-14c1.469,0.25,3.665,14.315-4,25c-4.917,6.854-11.828,9.439-16,11c-1.989,0.744-10.674,3.816-22,2
		C552.137,430.552,541.394,422.142,542,420.775z"/>
	<path class="st2" d="M628,387.775c-0.735,0.226,0.762,5.118,1,11c0,0,0.462,11.429-5,22c-7.498,14.511-21.987,17.586-21,20
		c1.022,2.5,17.506,1.525,27-9c1.297-1.437,4.458-5.265,6-11c2.215-8.239-0.284-15.313-3-23
		C631.327,393.038,628.796,387.53,628,387.775z"/>
	<path class="st2" d="M643,370.775c-0.491,0.595,2.18,2.987,5,7c1.829,2.603,6.724,10.16,8,20c1.167,8.996-1.13,16.518-3,21
		c-2.679,5.877-6.72,10.354-6,11c0.684,0.613,4.825-2.981,6-4c5.526-4.796,9.385-8.144,12-14c0.986-2.207,4.226-9.463,2-18
		c-1.916-7.348-6.813-11.55-12-16C649.948,373.44,643.689,369.941,643,370.775z"/>
	<path class="st2" d="M651,355.775c-0.538,1.366,9.323,3.466,16,12c7.858,10.043,5.813,21.979,8,22c1.82,0.017,4.258-8.244,3-16
		c-0.391-2.414-1.164-7.18-5-11c-2.55-2.539-5.204-3.416-10-5C658.612,356.325,651.461,354.606,651,355.775z"/>
	<path class="st3" d="M637,335.775c0.019,0.023,0.152-0.066,0.314-0.16c1.204-0.701,9.766-5.018,19.686-3.84
		c5.57,0.661,8.632,2.706,9,2c0.384-0.738-2.732-3.402-6-5c-1.629-0.797-5.439-2.66-10-2
		C642.279,327.892,636.853,335.597,637,335.775z"/>
	<path class="st3" d="M627,330.775c1.244,1.056,6.2-6.157,15-9c8.506-2.747,15.758,0.154,16-1c0.204-0.972-4.91-3.221-10-4
		c-2.333-0.357-4.845-0.741-8,0c-7.994,1.879-11.508,8.964-12,10C627.388,328.061,626.358,330.229,627,330.775z"/>
	<path class="st3" d="M615,330.775c0.986,0.363,2.13-6.752,9-12c6.803-5.197,14.101-4.651,14-6c-0.089-1.182-5.754-2.413-11-1
		c-3.391,0.913-5.575,2.654-6,3C614.371,320.178,613.844,330.349,615,330.775z"/>
	<path class="st3" d="M604,334.775c1.21,0.096,1.015-8.356,6-16c4.127-6.328,9.383-8.39,9-9c-0.486-0.775-9.66,1.444-14,9
		c-3.139,5.466-2.278,11.163-2,13C603.177,332.946,603.447,334.731,604,334.775z"/>
	<path class="st3" d="M598,315.775c0.039,0.044-0.111,0.234-0.155,0.293c-0.845,1.12-3.672,7.859-2.845,14.707
		c0.821,6.798,4.838,10.342,4,11c-0.724,0.569-4.06-1.819-6-5c-1.621-2.657-1.854-5.187-2-7c-0.203-2.512-0.53-6.575,2-10
		C594.848,317.274,597.853,315.608,598,315.775z"/>
	<path class="st3" d="M584,325.775c1.087,0.116-1.023,7.2,3,15c3.332,6.459,8.625,9.059,8,10c-0.575,0.865-5.481-0.686-9-4
		c-2.667-2.512-3.74-5.286-4-6C579.378,333.575,582.842,325.651,584,325.775z"/>
	<path class="st4" d="M647,345.775c0.251,1.084,7.229-1.989,16,1c8.225,2.803,11.96,8.869,13,8c0.95-0.793-1.444-6.449-6-10
		c-2.568-2.001-5.081-2.756-6-3C655.518,339.52,646.715,344.541,647,345.775z"/>
	<path class="st5" d="M578,345.775c0.995-0.362,2.1,5.905,8,10c5.827,4.044,12.001,2.963,12,4c-0.001,0.994-5.669,2.779-11,1
		c-1.543-0.515-3.981-1.636-6-4C577.242,352.375,577.031,346.127,578,345.775z"/>
	<path class="st5" d="M580,364.775c0.346-0.435,3.253,2.996,9,4c4.883,0.853,8.868-0.562,9,0c0.112,0.477-2.746,1.571-4,2
		c-0.75,0.257-2.604,0.892-4,1C584.651,372.189,579.527,365.369,580,364.775z"/>
	<path class="st5" d="M588,375.775c0.456-0.653,3.654,2.526,8,2c3.928-0.475,6.274-3.673,7-3c0.464,0.43-0.188,2.015-1,3
		c-1.063,1.289-2.476,1.642-4,2c-1.76,0.413-3.781,0.887-6,0C589.422,378.744,587.634,376.299,588,375.775z"/>
	<path class="st5" d="M601,383.775c0.063-1.015,4.309-0.262,9-3c3.816-2.227,5.503-5.349,6-5c0.517,0.362-1.311,3.731-2,5
		c-1.701,3.134-2.677,3.795-3,4c-1.48,0.937-2.983,0.982-4,1C604.149,385.825,600.945,384.661,601,383.775z"/>
	<rect x="379.5" y="275.275" class="st6" width="607" height="283"/>
</g>
</svg>
